<svg width="67" height="60" viewBox="0 0 67 60" xmlns="http://www.w3.org/2000/svg" xmlns:xlink="http://www.w3.org/1999/xlink"><title>Infiniti logo mobile light</title><defs><filter id="c"><feColorMatrix in="SourceGraphic" values="0 0 0 0 1.000000 0 0 0 0 1.000000 0 0 0 0 1.000000 0 0 0 1.000000 0"/></filter><path id="a" d="M0 0h67v60H0z"/></defs><g fill="none" fill-rule="evenodd"><mask id="b" fill="#fff"><use xlink:href="#a"/></mask><g mask="url(#b)"><g transform="translate(0 -5)" filter="url(#c)"><g fill="#000"><path d="M25.138 31.112c-2.208-.188-6.044-1.639-6.044-4.17 0-3.21 5.57-6.187 12.593-6.187 7.376 0 12.598 2.976 12.598 6.187 0 2.531-3.822 3.964-6.033 4.152-.609-.782-6.565-8.722-6.565-8.722s-5.978 8.004-6.549 8.74zm17.63 2.717c2.929-1.441 4.313-3.837 4.313-5.95 0-4.537-6.32-8.046-15.394-8.046-9.07 0-15.39 3.509-15.39 8.045 0 2.114 1.384 4.51 4.314 5.951 2.717 1.337 6.562 1.801 7.117 1.869l3.96-11.536 3.999 11.536c.554-.068 4.363-.532 7.081-1.869zM11.324 48.352s-1.95-5.063-1.994-5.195c-.048-.135-.154-.207-.354-.207H7.114v6.577H8.37v-5.332s1.92 4.997 1.972 5.126c.043.13.163.206.328.206h1.909V42.95h-1.254v5.402zM17.925 49.527H19.4l-.003-2.799h2.662v-1.202l-2.66.003V44.16h2.698v-1.21h-4.172v6.577zM52.058 44.215h1.647v5.312h1.502v-5.312h1.642V42.95h-4.791zM27.293 49.527h1.589V42.95h-1.589zM45.392 49.527h1.59V42.95h-1.59zM61.902 49.527h1.582V42.95h-1.582zM0 49.527h1.59V42.95H0zM38.649 42.95v5.402s-1.95-5.063-1.995-5.195c-.05-.135-.155-.207-.353-.207h-1.863v6.577h1.255v-5.332s1.926 4.997 1.972 5.126c.043.13.167.206.325.206h1.915V42.95h-1.256zM66.021 48.7c.083 0 .18-.016.18-.136 0-.094-.062-.127-.187-.127h-.137v.263h.144zm.072.109l.334.295h-.203l-.324-.279h-.023v.279h-.156v-.8h.348c.153 0 .287.063.287.253 0 .127-.097.23-.239.248l-.024.004zm-.075-.797c-.4 0-.728.319-.728.713 0 .389.328.708.728.708a.722.722 0 00.728-.708.722.722 0 00-.728-.713zm0 1.587c-.5 0-.91-.394-.91-.874 0-.481.41-.88.91-.88s.909.393.909.88c0 .48-.41.874-.909.874z"/></g></g></g></g></svg>